<svg width="40" height="40" viewBox="0 0 40 40" fill="none" xmlns="http://www.w3.org/2000/svg">
<g clip-path="url(#clip0_17_678)">
<path d="M9.04761 3.26547C10.1428 2.54852 11.3084 1.93978 12.5224 1.45023C13.7368 0.960684 14.9987 0.591216 16.2853 0.347982C17.5714 0.104748 18.8817 -0.0118115 20.1906 0.000943959C21.4992 0.0132596 22.8073 0.154453 24.0885 0.422319C25.3698 0.689744 26.6247 1.08341 27.8294 1.59582C29.0337 2.10824 30.1879 2.73942 31.2695 3.47704C32.3506 4.21466 33.3596 5.05872 34.2762 5.99295C35.1929 6.92718 36.0176 7.95202 36.7345 9.04723C37.4515 10.1424 38.0602 11.3085 38.5498 12.5224C39.0393 13.7364 39.4088 14.9988 39.652 16.2849C39.8953 17.5714 40.0118 18.8813 39.9991 20.1903C39.9867 21.4992 39.8456 22.8069 39.5777 24.0882C39.3103 25.3699 38.9166 26.6248 38.4042 27.829C37.8918 29.0338 37.2606 30.1879 36.523 31.2691C35.7853 32.3506 34.9413 33.3592 34.007 34.2763C33.0728 35.1929 32.048 36.0176 30.9528 36.7346C29.8576 37.4511 28.6915 38.0603 27.4776 38.5498C26.2636 39.0389 25.0012 39.4088 23.7151 39.6521C22.4286 39.8953 21.1187 40.0114 19.8097 39.9991C18.5008 39.9868 17.1931 39.8452 15.9118 39.5777C14.6301 39.3103 13.3752 38.9162 12.1709 38.4038C10.9662 37.8914 9.81206 37.2606 8.73092 36.523C7.64934 35.7854 6.64078 34.9413 5.72371 34.0067C4.80707 33.0724 3.98236 32.048 3.26541 30.9524C2.54891 29.8572 1.93972 28.6916 1.45017 27.4776C0.961066 26.2632 0.591158 25.0013 0.347924 23.7147C0.10469 22.4286 -0.0114298 21.1183 0.000885856 19.8094C0.0132015 18.5008 0.154828 17.1927 0.422254 15.9115C0.68968 14.6302 1.08378 13.3753 1.5962 12.1706C2.10862 10.9663 2.73936 9.81212 3.47698 8.73054C4.2146 7.64941 5.05866 6.6404 5.99333 5.72376C6.92756 4.80713 7.95196 3.98242 9.04761 3.26547Z" fill="url(#paint0_radial_17_678)"/>
<g filter="url(#filter0_d_17_678)">
<path fill-rule="evenodd" clip-rule="evenodd" d="M15.348 19.1165C15.3484 19.1144 15.4088 18.8019 15.4492 18.6486C15.4901 18.4945 15.5385 18.342 15.5929 18.193C15.6474 18.0439 15.7094 17.8966 15.7771 17.7539C15.8451 17.6112 15.92 17.471 16.0004 17.3359C16.0809 17.2004 16.1678 17.0687 16.2602 16.9421C16.3527 16.8155 16.4516 16.6931 16.5549 16.5767C16.6585 16.4602 16.7678 16.3484 16.8811 16.243C16.9948 16.1376 17.1137 16.0372 17.2366 15.9436C17.359 15.8501 17.4863 15.7624 17.6168 15.682C17.7473 15.6015 17.8822 15.527 18.0195 15.4601C18.1568 15.3932 18.2977 15.3326 18.4402 15.2801C18.5831 15.2272 18.7289 15.1814 18.8758 15.1433C19.0223 15.1056 19.1716 15.0747 19.3213 15.0519C19.4706 15.029 19.6219 15.0133 19.7732 15.0057C19.9241 14.9981 20.0763 14.9981 20.2272 15.0057C20.3781 15.0133 20.5294 15.029 20.6791 15.0519C20.8284 15.0747 20.9777 15.1056 21.1246 15.1433C21.2711 15.1814 21.4169 15.2272 21.5598 15.2801C21.7023 15.3326 21.8432 15.3932 21.9805 15.4601C22.1178 15.527 22.2527 15.6015 22.3832 15.682C22.5137 15.7624 22.641 15.8501 22.7638 15.9436C22.8863 16.0372 23.0052 16.1376 23.1189 16.243C23.2326 16.3484 23.3419 16.4602 23.4451 16.5767C23.5488 16.6931 23.6473 16.8155 23.7398 16.9421C23.8322 17.0687 23.9191 17.2004 24 17.3359C24.0804 17.471 24.1549 17.6112 24.2229 17.7539C24.291 17.8966 24.3526 18.0439 24.4071 18.193C24.4619 18.342 24.5099 18.4945 24.5508 18.6486C24.5916 18.8023 24.6524 19.1165 24.6524 19.1165H25.6216C25.622 19.1131 25.7689 18.4491 25.8878 18.1358C26.007 17.822 26.16 17.5146 26.3369 17.233C26.5138 16.951 26.7224 16.683 26.9497 16.445C27.1771 16.207 27.4329 15.9894 27.7011 15.8052C27.9693 15.6214 28.2615 15.463 28.5597 15.3402C28.8576 15.2174 29.1742 15.1255 29.4892 15.0692C29.8047 15.0133 30.1321 14.9909 30.4519 15.0036C30.7714 15.0163 31.0964 15.0646 31.407 15.1459C31.7173 15.2268 32.0263 15.344 32.3149 15.4901C32.6031 15.6362 32.8833 15.8174 33.1379 16.0224C33.3921 16.2273 33.6315 16.4649 33.8412 16.7202C34.051 16.9756 34.2399 17.2593 34.3965 17.5544C34.553 17.8496 34.6835 18.1684 34.7799 18.4906C34.8764 18.8133 34.9429 19.1533 34.9757 19.49C35.0081 19.8262 35.0081 20.1734 34.9757 20.51C34.9429 20.8467 34.8764 21.1867 34.7799 21.5089C34.6835 21.8316 34.553 22.15 34.3965 22.4452C34.2399 22.7403 34.051 23.0244 33.8412 23.2798C33.6315 23.5351 33.3921 23.7722 33.1379 23.9776C32.8833 24.1825 32.6031 24.3634 32.3149 24.5094C32.0263 24.6555 31.7173 24.7728 31.407 24.8541C31.0964 24.935 30.7714 24.9837 30.4519 24.9964C30.1321 25.0091 29.8047 24.9867 29.4892 24.9303C29.1742 24.8744 28.8576 24.7821 28.5597 24.6593C28.2615 24.537 27.9693 24.3786 27.7011 24.1944C27.4329 24.0102 27.1771 23.7926 26.9497 23.5546C26.7224 23.3166 26.5138 23.0486 26.3369 22.767C26.16 22.485 26.007 22.178 25.8878 21.8638C25.7685 21.55 25.6216 20.8835 25.6216 20.8835H24.6524C24.6524 20.8835 24.5916 21.1973 24.5508 21.3514C24.5099 21.5055 24.4619 21.658 24.4071 21.807C24.3526 21.9561 24.291 22.103 24.2229 22.2457C24.1549 22.3888 24.0804 22.5286 24 22.6641C23.9191 22.7996 23.8322 22.9313 23.7398 23.0579C23.6473 23.1841 23.5488 23.3064 23.4451 23.4229C23.3419 23.5398 23.2326 23.6516 23.1189 23.757C23.0052 23.8624 22.8863 23.9628 22.7638 24.0559C22.641 24.1495 22.5137 24.2372 22.3832 24.3176C22.2527 24.3985 22.1178 24.4726 21.9805 24.5399C21.8432 24.6068 21.7023 24.667 21.5598 24.7199C21.4169 24.7724 21.2711 24.8181 21.1246 24.8562C20.9777 24.8944 20.8284 24.9248 20.6791 24.9481C20.5294 24.971 20.3781 24.9862 20.2272 24.9943C20.0763 25.0019 19.9241 25.0019 19.7732 24.9943C19.6219 24.9862 19.4706 24.971 19.3213 24.9481C19.1716 24.9248 19.0223 24.8944 18.8758 24.8562C18.7289 24.8181 18.5831 24.7724 18.4402 24.7199C18.2977 24.667 18.1568 24.6068 18.0195 24.5399C17.8822 24.4726 17.7473 24.3985 17.6168 24.3176C17.4863 24.2372 17.359 24.1495 17.2366 24.0559C17.1137 23.9628 16.9948 23.8624 16.8811 23.757C16.7678 23.6516 16.6585 23.5398 16.5549 23.4229C16.4516 23.3064 16.3527 23.1841 16.2602 23.0579C16.1678 22.9313 16.0809 22.7996 16.0004 22.6641C15.92 22.5286 15.8451 22.3888 15.7771 22.2457C15.7094 22.103 15.6474 21.9561 15.5929 21.807C15.5385 21.658 15.4901 21.5055 15.4492 21.3514C15.4084 21.1973 15.348 20.8835 15.348 20.8835H14.3788C14.3788 20.8835 14.2315 21.55 14.1122 21.8638C13.993 22.178 13.8404 22.485 13.6635 22.767C13.4862 23.0486 13.2776 23.3166 13.0503 23.5546C12.8229 23.7926 12.5675 24.0102 12.2989 24.1944C12.0307 24.3786 11.7385 24.537 11.4407 24.6593C11.1424 24.7821 10.8262 24.8744 10.5108 24.9303C10.1953 24.9867 9.86791 25.0091 9.54807 24.9964C9.22863 24.9837 8.90359 24.935 8.59336 24.8541C8.28273 24.7728 7.9737 24.6555 7.68549 24.5094C7.39688 24.3634 7.11667 24.1825 6.86248 23.9776C6.60789 23.7722 6.36851 23.5351 6.15876 23.2798C5.949 23.0244 5.76006 22.7403 5.60355 22.4452C5.44743 22.15 5.31694 21.8316 5.22047 21.5089C5.12359 21.1867 5.05714 20.8467 5.02432 20.51C4.99189 20.1734 4.99189 19.8262 5.02432 19.49C5.05714 19.1533 5.12359 18.8133 5.22047 18.4906C5.31694 18.1684 5.44743 17.8496 5.60355 17.5544C5.76006 17.2593 5.949 16.9756 6.15876 16.7202C6.36851 16.4649 6.60789 16.2273 6.86248 16.0224C7.11667 15.8174 7.39688 15.6362 7.68549 15.4901C7.9737 15.344 8.28273 15.2268 8.59336 15.1459C8.90359 15.0646 9.22863 15.0163 9.54807 15.0036C9.86791 14.9909 10.1953 15.0133 10.5108 15.0692C10.8262 15.1255 11.1424 15.2174 11.4407 15.3402C11.7385 15.463 12.0307 15.6214 12.2989 15.8052C12.5675 15.9894 12.8229 16.207 13.0503 16.445C13.2776 16.683 13.4862 16.951 13.6635 17.233C13.8404 17.5146 13.993 17.822 14.1122 18.1358C14.2315 18.4496 14.3788 19.1165 14.3788 19.1165H15.348ZM7.08785 19.9998C7.08785 19.8186 7.10506 19.6335 7.13869 19.4552C7.17191 19.2774 7.22315 19.0995 7.2888 18.9319C7.35445 18.7642 7.43731 18.6003 7.53258 18.4491C7.62785 18.2984 7.73953 18.1544 7.86082 18.0261C7.98211 17.8978 8.11781 17.7801 8.26072 17.6793C8.40322 17.5781 8.55814 17.4905 8.71666 17.421C8.87517 17.3516 9.0433 17.2978 9.21182 17.2622C9.37995 17.2271 9.55487 17.2089 9.7266 17.2089C9.89793 17.2089 10.0729 17.2271 10.2414 17.2622C10.4095 17.2978 10.5776 17.3516 10.7361 17.421C10.8947 17.4905 11.0496 17.5781 11.1925 17.6793C11.335 17.7801 11.4707 17.8978 11.5924 18.0261C11.7137 18.1544 11.825 18.2984 11.9202 18.4491C12.0159 18.6003 12.0984 18.7642 12.1644 18.9319C12.2301 19.0995 12.2809 19.2774 12.3145 19.4552C12.3477 19.6335 12.365 19.8186 12.365 19.9998C12.365 20.1814 12.3477 20.3665 12.3145 20.5443C12.2809 20.7226 12.2301 20.9004 12.1644 21.0681C12.0984 21.2358 12.0159 21.3997 11.9202 21.5504C11.825 21.7016 11.7137 21.8451 11.5924 21.9734C11.4707 22.1018 11.335 22.2199 11.1925 22.3207C11.0496 22.4215 10.8947 22.5091 10.7361 22.5785C10.5776 22.648 10.4095 22.7022 10.2414 22.7373C10.0729 22.7729 9.89793 22.7911 9.7266 22.7911C9.55487 22.7911 9.37995 22.7729 9.21182 22.7373C9.0433 22.7022 8.87517 22.648 8.71666 22.5785C8.55814 22.5091 8.40322 22.4215 8.26072 22.3207C8.11781 22.2199 7.98211 22.1018 7.86082 21.9734C7.73953 21.8451 7.62785 21.7016 7.53258 21.5504C7.43731 21.3997 7.35445 21.2358 7.2888 21.0681C7.22315 20.9004 7.17191 20.7226 7.13869 20.5443C7.10506 20.3665 7.08785 20.1814 7.08785 19.9998ZM32.9121 19.9998C32.9121 19.8186 32.8949 19.6335 32.8617 19.4552C32.8281 19.2774 32.7773 19.0995 32.7116 18.9319C32.6456 18.7642 32.5631 18.6003 32.4674 18.4491C32.3722 18.2984 32.2609 18.1544 32.1396 18.0261C32.0179 17.8978 31.8822 17.7801 31.7397 17.6793C31.5968 17.5781 31.4419 17.4905 31.2834 17.421C31.1248 17.3516 30.9567 17.2978 30.7886 17.2622C30.6201 17.2271 30.4451 17.2089 30.2738 17.2089C30.1021 17.2089 29.9271 17.2271 29.759 17.2622C29.5905 17.2978 29.4224 17.3516 29.2639 17.421C29.1053 17.4905 28.9504 17.5781 28.8075 17.6793C28.665 17.7801 28.5293 17.8978 28.408 18.0261C28.2863 18.1544 28.175 18.2984 28.0798 18.4491C27.9845 18.6003 27.9016 18.7642 27.836 18.9319C27.7703 19.0995 27.7191 19.2774 27.6859 19.4552C27.6523 19.6335 27.635 19.8186 27.635 19.9998C27.635 20.1814 27.6523 20.3665 27.6859 20.5443C27.7191 20.7226 27.7703 20.9004 27.836 21.0681C27.9016 21.2358 27.9845 21.3997 28.0798 21.5504C28.175 21.7016 28.2863 21.8451 28.408 21.9734C28.5293 22.1018 28.665 22.2199 28.8075 22.3207C28.9504 22.4215 29.1053 22.5091 29.2639 22.5785C29.4224 22.648 29.5905 22.7022 29.759 22.7373C29.9271 22.7729 30.1021 22.7911 30.2738 22.7911C30.4451 22.7911 30.6201 22.7729 30.7886 22.7373C30.9567 22.7022 31.1248 22.648 31.2834 22.5785C31.4419 22.5091 31.5968 22.4215 31.7397 22.3207C31.8822 22.2199 32.0179 22.1018 32.1396 21.9734C32.2609 21.8451 32.3722 21.7016 32.4674 21.5504C32.5631 21.3997 32.6456 21.2358 32.7116 21.0681C32.7773 20.9004 32.8281 20.7226 32.8617 20.5443C32.8949 20.3665 32.9121 20.1814 32.9121 19.9998ZM22.6386 19.9998C22.6386 19.8186 22.6213 19.6335 22.5881 19.4552C22.5545 19.2774 22.5037 19.0995 22.438 18.9319C22.372 18.7642 22.2895 18.6003 22.1938 18.4491C22.0986 18.2984 21.9873 18.1544 21.866 18.0261C21.7447 17.8978 21.6086 17.7801 21.4661 17.6793C21.3232 17.5781 21.1683 17.4905 21.0097 17.421C20.8512 17.3516 20.6831 17.2978 20.515 17.2622C20.3465 17.2271 20.1715 17.2089 20.0002 17.2089C19.8285 17.2089 19.6535 17.2271 19.4854 17.2622C19.3169 17.2978 19.1488 17.3516 18.9903 17.421C18.8317 17.4905 18.6768 17.5781 18.5343 17.6793C18.3914 17.7801 18.2557 17.8978 18.1344 18.0261C18.0131 18.1544 17.9014 18.2984 17.8062 18.4491C17.7109 18.6003 17.628 18.7642 17.5624 18.9319C17.4967 19.0995 17.4455 19.2774 17.4123 19.4552C17.3787 19.6335 17.3614 19.8186 17.3614 19.9998C17.3614 20.1814 17.3787 20.3665 17.4123 20.5443C17.4455 20.7226 17.4967 20.9004 17.5624 21.0681C17.628 21.2358 17.7109 21.3997 17.8062 21.5504C17.9014 21.7016 18.0131 21.8451 18.1344 21.9734C18.2557 22.1018 18.3914 22.2199 18.5343 22.3207C18.6768 22.4215 18.8317 22.5091 18.9903 22.5785C19.1488 22.648 19.3169 22.7022 19.4854 22.7373C19.6535 22.7729 19.8285 22.7911 20.0002 22.7911C20.1715 22.7911 20.3465 22.7729 20.515 22.7373C20.6831 22.7022 20.8512 22.648 21.0097 22.5785C21.1683 22.5091 21.3232 22.4215 21.4661 22.3207C21.6086 22.2199 21.7447 22.1018 21.866 21.9734C21.9873 21.8451 22.0986 21.7016 22.1938 21.5504C22.2895 21.3997 22.372 21.2358 22.438 21.0681C22.5037 20.9004 22.5545 20.7226 22.5881 20.5443C22.6213 20.3665 22.6386 20.1814 22.6386 19.9998Z" fill="#FEFBF1"/>
</g>
</g>
<defs>
<filter id="filter0_d_17_678" x="1" y="11" width="38" height="18" filterUnits="userSpaceOnUse" color-interpolation-filters="sRGB">
<feFlood flood-opacity="0" result="BackgroundImageFix"/>
<feColorMatrix in="SourceAlpha" type="matrix" values="0 0 0 0 0 0 0 0 0 0 0 0 0 0 0 0 0 0 127 0" result="hardAlpha"/>
<feOffset/>
<feGaussianBlur stdDeviation="2"/>
<feColorMatrix type="matrix" values="0 0 0 0 0 0 0 0 0 0 0 0 0 0 0 0 0 0 0.7 0"/>
<feBlend mode="normal" in2="BackgroundImageFix" result="effect1_dropShadow_17_678"/>
<feBlend mode="normal" in="SourceGraphic" in2="effect1_dropShadow_17_678" result="shape"/>
</filter>
<radialGradient id="paint0_radial_17_678" cx="0" cy="0" r="1" gradientUnits="userSpaceOnUse" gradientTransform="translate(20 20) scale(20)">
<stop stop-color="#FFD359"/>
<stop offset="1" stop-color="#BE5005"/>
</radialGradient>
<clipPath id="clip0_17_678">
<rect width="40" height="40" fill="white"/>
</clipPath>
</defs>
</svg>
